<?xml version="1.0" encoding="iso-8859-1"?>
<!-- Generator: Adobe Illustrator 19.0.0, SVG Export Plug-In . SVG Version: 6.00 Build 0)  -->
<svg version="1.1" id="Capa_1" xmlns="http://www.w3.org/2000/svg" xmlns:xlink="http://www.w3.org/1999/xlink" x="0px" y="0px"
	 viewBox="0 0 512 512" style="enable-background:new 0 0 512 512;" xml:space="preserve">
<g>
	<g>
		<path d="M376.478,48.251c-15.968,0-31.516,2.733-46.331,8.135c-20.457-28.081-52.699-44.604-87.822-44.604
			c-58.651,0-106.605,46.678-108.667,104.835c-55.031,5.029-98.278,51.438-98.278,107.758c0,59.667,48.542,108.209,108.209,108.209
			c8.4,0,16.709-0.965,24.819-2.875c11.032,49.958,55.435,86.325,107.723,86.325c28.783,0,56.024-11.019,76.707-31.026
			c18.369-17.771,29.833-40.937,32.839-66.019C456.129,314.242,512,255.41,512,183.774C512,109.047,451.205,48.251,376.478,48.251z
			 M376.544,299.297c-0.049,0-0.1-0.001-0.139-0.001c-5.385,0-9.804,4.265-9.994,9.646c-1.728,48.836-41.384,87.091-90.281,87.091
			c-46.076,0-84.672-34.478-89.776-80.199c-0.339-3.034-2.045-5.747-4.632-7.366c-1.61-1.008-3.452-1.524-5.307-1.524
			c-1.126,0-2.256,0.19-3.342,0.575c-9.479,3.361-19.399,5.065-29.485,5.065c-48.639,0-88.209-39.57-88.209-88.209
			c0-48.597,39.501-88.142,88.082-88.209c0.104,0.002,0.212,0.004,0.292,0.004c2.75,0,5.379-1.132,7.268-3.131
			c1.889-1.999,2.871-4.687,2.717-7.432c-0.1-1.756-0.149-3.467-0.149-5.088c0-48.93,39.807-88.737,88.736-88.737
			c30.976,0,59.211,15.754,75.529,42.143c2.615,4.23,7.939,5.897,12.502,3.907c14.582-6.358,30.1-9.582,46.122-9.582
			C440.177,68.251,492,120.074,492,183.774C492,247.451,440.211,299.259,376.544,299.297z" fill="#e8e4d5"/>
	</g>
</g>
<g>
	<g>
		<path d="M336.784,297.889c-5.479-0.204-10.152,4.12-10.348,9.64c-0.963,27.199-23.06,48.505-50.307,48.505
			c-25.677,0-47.183-19.19-50.023-44.638c-0.613-5.49-5.568-9.443-11.048-8.829c-5.489,0.613-9.441,5.56-8.829,11.048
			c3.974,35.585,34.023,62.419,69.9,62.419c38.071,0,68.949-29.78,70.295-67.797C346.62,302.717,342.304,298.084,336.784,297.889z" fill="#e8e4d5"
			/>
	</g>
</g>
<g>
	<g>
		<path d="M376.478,88.251c-10.025,0-19.878,1.537-29.282,4.568c-5.257,1.694-8.145,7.329-6.45,12.585
			c1.693,5.256,7.324,8.143,12.585,6.451c7.42-2.392,15.208-3.604,23.147-3.604c41.644,0,75.522,33.879,75.522,75.523
			c0,5.523,4.478,10,10,10c5.522,0,10-4.477,10-10C472,131.103,429.148,88.251,376.478,88.251z" fill="#e8e4d5"/>
	</g>
</g>
<g>
	<g>
		<path d="M321.37,115.23c-0.12-0.63-0.32-1.26-0.57-1.87c-0.25-0.6-0.56-1.18-0.92-1.72c-0.36-0.55-0.78-1.06-1.24-1.52
			c-0.46-0.46-0.97-0.88-1.52-1.25c-0.54-0.36-1.12-0.67-1.73-0.92c-0.6-0.25-1.229-0.44-1.87-0.57c-1.29-0.26-2.62-0.26-3.91,0
			c-0.63,0.13-1.26,0.32-1.869,0.57c-0.601,0.25-1.181,0.56-1.721,0.92c-0.55,0.37-1.06,0.79-1.52,1.25
			c-0.46,0.46-0.88,0.97-1.25,1.52c-0.351,0.54-0.66,1.12-0.91,1.72c-0.25,0.61-0.45,1.24-0.57,1.87c-0.13,0.65-0.2,1.31-0.2,1.96
			s0.07,1.31,0.2,1.95c0.12,0.64,0.32,1.27,0.57,1.87c0.25,0.61,0.56,1.19,0.91,1.73c0.37,0.55,0.79,1.06,1.25,1.52
			c0.46,0.46,0.97,0.88,1.52,1.24c0.54,0.36,1.12,0.67,1.721,0.92c0.609,0.25,1.239,0.44,1.869,0.57c0.65,0.13,1.311,0.2,1.96,0.2
			c0.65,0,1.311-0.07,1.95-0.2c0.641-0.13,1.271-0.32,1.87-0.57c0.61-0.25,1.19-0.56,1.73-0.92c0.55-0.36,1.06-0.78,1.52-1.24
			c0.46-0.46,0.88-0.97,1.24-1.52c0.36-0.54,0.67-1.12,0.92-1.73c0.25-0.6,0.45-1.23,0.57-1.87c0.13-0.64,0.199-1.3,0.199-1.95
			C321.569,116.54,321.5,115.881,321.37,115.23z" fill="#e8e4d5"/>
	</g>
</g>
<g>
	<g>
		<path d="M294.886,76.207c-13.048-15.522-32.206-24.425-52.562-24.425c-37.901,0-68.736,30.835-68.736,68.737
			c0,1.245,0.039,2.578,0.117,3.961c0.3,5.323,4.71,9.438,9.976,9.438c0.188,0,0.38-0.005,0.571-0.016
			c5.514-0.311,9.732-5.033,9.422-10.547c-0.057-1.01-0.086-1.964-0.086-2.836c0-26.874,21.863-48.737,48.736-48.737
			c14.436,0,28.013,6.304,37.251,17.294c3.556,4.228,9.861,4.773,14.09,1.22C297.893,86.743,298.439,80.436,294.886,76.207z" fill="#e8e4d5"/>
	</g>
</g>
<g>
	<g>
		<path d="M201.339,241.667h-25.913l26.444-34.614c2.51-3.294,3.893-7.01,3.893-10.462c0-6.067-4.183-8.22-7.765-8.22h-45.399
			c-4.081,0-7.158,4.252-7.158,9.89c0,5.537,3.211,10.042,7.158,10.042h22.272l-26.295,34.614
			c-1.954,2.555-4.197,6.002-4.197,10.007c0,4.002,2.152,8.676,8.221,8.676h48.74c4.081,0,7.158-4.252,7.158-9.89
			C208.497,246.173,205.286,241.667,201.339,241.667z" fill="#e8e4d5"/>
	</g>
</g>
<g>
	<g>
		<path d="M395.842,241.667H369.93l26.443-34.614c2.511-3.295,3.894-7.011,3.894-10.462c0-6.067-4.182-8.22-7.764-8.22h-45.4
			c-4.08,0-7.157,4.252-7.157,9.89c0,5.537,3.211,10.042,7.157,10.042h22.272l-26.295,34.614c-1.954,2.556-4.197,6.004-4.197,10.007
			c0,4.002,2.152,8.676,8.22,8.676h48.74c4.081,0,7.158-4.252,7.158-9.89C403,246.173,399.789,241.667,395.842,241.667z" fill="#e8e4d5"/>
	</g>
</g>
<g>
	<g>
		<path d="M305.879,239.998h-40.484l42.421-75.063c1.727-3.139,2.639-6.107,2.639-8.58c0-4.196-2.732-6.701-7.308-6.701h-58.61
			c-5.259,0-7.612,5.425-7.612,10.801c0,6.36,3.131,10.802,7.612,10.802h34.411l-42.415,75.053
			c-1.682,2.903-2.647,6.034-2.647,8.588c0,4.322,2.596,6.702,7.309,6.702h64.684c4.765,0,7.613-5.492,7.613-10.801
			C313.492,245.49,310.645,239.998,305.879,239.998z" fill="#e8e4d5"/>
	</g>
</g>
<g>
	<g>
		<path d="M104.176,351.229c-26.87,0-48.73,21.86-48.73,48.73c0,26.87,21.86,48.731,48.73,48.731s48.73-21.861,48.73-48.731
			S131.046,351.229,104.176,351.229z M104.176,428.69c-15.842,0-28.73-12.889-28.73-28.731s12.889-28.73,28.73-28.73
			c15.841,0,28.73,12.888,28.73,28.73C132.906,415.802,120.018,428.69,104.176,428.69z" fill="#e8e4d5"/>
	</g>
</g>
<g>
	<g>
		<path d="M32.944,434.33C14.778,434.33,0,449.108,0,467.273c0,18.165,14.778,32.944,32.944,32.944
			c18.165,0,32.943-14.779,32.943-32.944C65.887,449.108,51.109,434.33,32.944,434.33z M32.944,480.218
			c-7.138,0-12.944-5.807-12.944-12.944c0-7.137,5.807-12.944,12.944-12.944c7.137,0,12.943,5.807,12.943,12.944
			C45.888,474.411,40.081,480.218,32.944,480.218z" fill="#e8e4d5"/>
	</g>
</g>
<g>
</g>
<g>
</g>
<g>
</g>
<g>
</g>
<g>
</g>
<g>
</g>
<g>
</g>
<g>
</g>
<g>
</g>
<g>
</g>
<g>
</g>
<g>
</g>
<g>
</g>
<g>
</g>
<g>
</g>
</svg>
